<svg xmlns="http://www.w3.org/2000/svg" xmlns:xlink="http://www.w3.org/1999/xlink" width="705" zoomAndPan="magnify" viewBox="0 0 528.75 71.249999" height="95" preserveAspectRatio="xMidYMid meet" version="1.0"><defs><g/></defs><g fill="#000000" fill-opacity="1"><g transform="translate(63.548139, 54.839408)"><g><path d="M 21.609375 1.1875 C 17.867188 1.1875 14.570312 0.289062 11.71875 -1.5 C 8.863281 -3.289062 6.660156 -5.660156 5.109375 -8.609375 C 3.554688 -11.566406 2.78125 -14.738281 2.78125 -18.125 C 2.78125 -22.257812 3.710938 -25.859375 5.578125 -28.921875 C 7.453125 -31.992188 9.84375 -34.347656 12.75 -35.984375 C 15.664062 -37.617188 18.617188 -38.4375 21.609375 -38.4375 C 25.390625 -38.4375 28.722656 -37.539062 31.609375 -35.75 C 34.503906 -33.957031 36.726562 -31.59375 38.28125 -28.65625 C 39.84375 -25.726562 40.625 -22.570312 40.625 -19.1875 C 40.625 -15.050781 39.675781 -11.4375 37.78125 -8.34375 C 35.894531 -5.257812 33.472656 -2.898438 30.515625 -1.265625 C 27.566406 0.367188 24.597656 1.1875 21.609375 1.1875 Z M 21.546875 -1.421875 C 24.222656 -1.421875 26.457031 -2.21875 28.25 -3.8125 C 30.039062 -5.40625 31.378906 -7.550781 32.265625 -10.25 C 33.148438 -12.945312 33.59375 -15.925781 33.59375 -19.1875 C 33.59375 -22.21875 33.140625 -25.003906 32.234375 -27.546875 C 31.328125 -30.085938 29.96875 -32.113281 28.15625 -33.625 C 26.351562 -35.144531 24.148438 -35.90625 21.546875 -35.90625 C 17.609375 -35.90625 14.644531 -34.238281 12.65625 -30.90625 C 10.675781 -27.582031 9.6875 -23.378906 9.6875 -18.296875 C 9.6875 -15.234375 10.128906 -12.421875 11.015625 -9.859375 C 11.898438 -7.296875 13.226562 -5.25 15 -3.71875 C 16.769531 -2.1875 18.953125 -1.421875 21.546875 -1.421875 Z M 21.546875 -1.421875 "/></g></g></g><g fill="#000000" fill-opacity="1"><g transform="translate(106.942836, 54.839408)"><g><path d="M 3.65625 0.171875 C 3.300781 0.171875 3.035156 0.046875 2.859375 -0.203125 C 2.679688 -0.460938 2.59375 -0.769531 2.59375 -1.125 C 2.632812 -1.707031 2.753906 -2.054688 2.953125 -2.171875 C 3.148438 -2.296875 3.523438 -2.359375 4.078125 -2.359375 C 5.210938 -2.359375 6.046875 -2.566406 6.578125 -2.984375 C 7.109375 -3.398438 7.429688 -3.890625 7.546875 -4.453125 C 7.671875 -5.023438 7.753906 -5.84375 7.796875 -6.90625 L 7.90625 -30.34375 C 7.90625 -31.53125 7.773438 -32.425781 7.515625 -33.03125 C 7.265625 -33.644531 6.863281 -34.085938 6.3125 -34.359375 C 5.757812 -34.640625 4.972656 -34.878906 3.953125 -35.078125 C 3.285156 -35.191406 2.875 -35.304688 2.71875 -35.421875 C 2.5625 -35.546875 2.484375 -35.882812 2.484375 -36.4375 C 2.484375 -36.90625 2.609375 -37.21875 2.859375 -37.375 C 3.117188 -37.53125 3.523438 -37.609375 4.078125 -37.609375 C 6.515625 -37.609375 8.441406 -37.441406 9.859375 -37.109375 C 11.273438 -36.773438 12.523438 -36.175781 13.609375 -35.3125 C 14.691406 -34.445312 15.882812 -33.128906 17.1875 -31.359375 L 33.359375 -10.09375 L 33.53125 -10.09375 L 33.421875 -30.34375 C 33.378906 -31.40625 33.296875 -32.222656 33.171875 -32.796875 C 33.054688 -33.367188 32.734375 -33.859375 32.203125 -34.265625 C 31.671875 -34.679688 30.835938 -34.890625 29.703125 -34.890625 L 29.34375 -34.890625 C 28.945312 -34.890625 28.660156 -34.957031 28.484375 -35.09375 C 28.304688 -35.238281 28.203125 -35.585938 28.171875 -36.140625 C 28.171875 -36.492188 28.265625 -36.796875 28.453125 -37.046875 C 28.648438 -37.304688 28.910156 -37.4375 29.234375 -37.4375 C 31.742188 -37.320312 33.628906 -37.265625 34.890625 -37.265625 C 35.640625 -37.265625 37.078125 -37.300781 39.203125 -37.375 L 40.453125 -37.4375 C 40.804688 -37.4375 41.070312 -37.304688 41.25 -37.046875 C 41.425781 -36.796875 41.515625 -36.492188 41.515625 -36.140625 C 41.472656 -35.546875 41.351562 -35.1875 41.15625 -35.0625 C 40.957031 -34.945312 40.582031 -34.890625 40.03125 -34.890625 C 38.894531 -34.890625 38.0625 -34.679688 37.53125 -34.265625 C 37 -33.859375 36.671875 -33.367188 36.546875 -32.796875 C 36.429688 -32.222656 36.351562 -31.40625 36.3125 -30.34375 L 36.203125 -0.59375 C 36.160156 -0.0820312 35.664062 0.171875 34.71875 0.171875 C 33.96875 0.171875 33.394531 -0.0820312 33 -0.59375 L 10.75 -30.34375 L 10.5625 -30.34375 L 10.6875 -6.90625 C 10.726562 -5.84375 10.804688 -5.023438 10.921875 -4.453125 C 11.035156 -3.890625 11.359375 -3.398438 11.890625 -2.984375 C 12.421875 -2.566406 13.257812 -2.359375 14.40625 -2.359375 L 14.765625 -2.359375 C 15.160156 -2.359375 15.445312 -2.289062 15.625 -2.15625 C 15.800781 -2.019531 15.90625 -1.675781 15.9375 -1.125 C 15.9375 -0.769531 15.847656 -0.460938 15.671875 -0.203125 C 15.492188 0.046875 15.226562 0.171875 14.875 0.171875 C 12.351562 0.0546875 10.445312 0 9.15625 0 C 8.363281 0 6.984375 0.0390625 5.015625 0.125 Z M 3.65625 0.171875 "/></g></g></g><g fill="#000000" fill-opacity="1"><g transform="translate(150.455618, 54.839408)"><g><path d="M 25.265625 0.296875 C 24.679688 0.296875 24.269531 0.0976562 24.03125 -0.296875 L 10.75 -30.34375 L 10.5625 -30.34375 L 10.6875 -6.90625 C 10.726562 -5.84375 10.804688 -5.023438 10.921875 -4.453125 C 11.035156 -3.890625 11.359375 -3.398438 11.890625 -2.984375 C 12.421875 -2.566406 13.257812 -2.359375 14.40625 -2.359375 L 14.765625 -2.359375 C 15.160156 -2.359375 15.445312 -2.289062 15.625 -2.15625 C 15.800781 -2.019531 15.90625 -1.675781 15.9375 -1.125 C 15.9375 -0.769531 15.847656 -0.460938 15.671875 -0.203125 C 15.492188 0.046875 15.226562 0.171875 14.875 0.171875 L 13.40625 0.125 C 11.59375 0.0390625 10.289062 0 9.5 0 C 8.164062 0 6.21875 0.0546875 3.65625 0.171875 C 3.300781 0.171875 3.035156 0.046875 2.859375 -0.203125 C 2.679688 -0.460938 2.59375 -0.769531 2.59375 -1.125 C 2.632812 -1.707031 2.753906 -2.054688 2.953125 -2.171875 C 3.148438 -2.296875 3.523438 -2.359375 4.078125 -2.359375 C 5.210938 -2.359375 6.046875 -2.566406 6.578125 -2.984375 C 7.109375 -3.398438 7.429688 -3.890625 7.546875 -4.453125 C 7.671875 -5.023438 7.753906 -5.84375 7.796875 -6.90625 L 7.90625 -30.34375 C 7.90625 -31.570312 7.765625 -32.488281 7.484375 -33.09375 C 7.210938 -33.707031 6.8125 -34.140625 6.28125 -34.390625 C 5.75 -34.648438 4.972656 -34.878906 3.953125 -35.078125 C 3.796875 -35.117188 3.5625 -35.164062 3.25 -35.21875 C 2.9375 -35.28125 2.726562 -35.398438 2.625 -35.578125 C 2.53125 -35.753906 2.484375 -36.039062 2.484375 -36.4375 C 2.484375 -36.90625 2.609375 -37.21875 2.859375 -37.375 C 3.117188 -37.53125 3.523438 -37.609375 4.078125 -37.609375 C 6.398438 -37.609375 8.304688 -37.460938 9.796875 -37.171875 C 11.296875 -36.878906 12.601562 -36.28125 13.71875 -35.375 C 14.84375 -34.46875 15.78125 -33.128906 16.53125 -31.359375 L 26.6875 -8.5625 L 26.859375 -8.5625 L 38.5 -37.265625 L 41.859375 -37.265625 C 44.023438 -37.265625 46.367188 -37.320312 48.890625 -37.4375 C 49.242188 -37.4375 49.507812 -37.304688 49.6875 -37.046875 C 49.863281 -36.796875 49.953125 -36.492188 49.953125 -36.140625 C 49.910156 -35.546875 49.78125 -35.1875 49.5625 -35.0625 C 49.351562 -34.945312 48.992188 -34.890625 48.484375 -34.890625 C 47.335938 -34.890625 46.488281 -34.679688 45.9375 -34.265625 C 45.382812 -33.859375 45.039062 -33.347656 44.90625 -32.734375 C 44.769531 -32.128906 44.679688 -31.332031 44.640625 -30.34375 L 44.640625 -6.90625 C 44.679688 -5.925781 44.769531 -5.128906 44.90625 -4.515625 C 45.039062 -3.910156 45.382812 -3.398438 45.9375 -2.984375 C 46.488281 -2.566406 47.335938 -2.359375 48.484375 -2.359375 L 48.828125 -2.359375 C 49.179688 -2.359375 49.445312 -2.289062 49.625 -2.15625 C 49.800781 -2.019531 49.910156 -1.675781 49.953125 -1.125 C 49.953125 -0.769531 49.863281 -0.460938 49.6875 -0.203125 C 49.507812 0.046875 49.242188 0.171875 48.890625 0.171875 C 46.367188 0.0546875 44.007812 0 41.8125 0 C 39.519531 0 37.097656 0.0546875 34.546875 0.171875 C 34.191406 0.171875 33.925781 0.046875 33.75 -0.203125 C 33.570312 -0.460938 33.484375 -0.769531 33.484375 -1.125 C 33.515625 -1.707031 33.628906 -2.054688 33.828125 -2.171875 C 34.023438 -2.296875 34.398438 -2.359375 34.953125 -2.359375 C 36.097656 -2.359375 36.945312 -2.566406 37.5 -2.984375 C 38.050781 -3.398438 38.394531 -3.910156 38.53125 -4.515625 C 38.664062 -5.128906 38.753906 -5.925781 38.796875 -6.90625 L 38.796875 -30.34375 L 38.609375 -30.34375 L 26.453125 -0.296875 C 26.296875 0.0976562 25.898438 0.296875 25.265625 0.296875 Z M 25.265625 0.296875 "/></g></g></g><g fill="#000000" fill-opacity="1"><g transform="translate(202.942541, 54.839408)"><g><path d="M 0.359375 0.171875 C 0.00390625 0.171875 -0.257812 0.046875 -0.4375 -0.203125 C -0.613281 -0.460938 -0.703125 -0.769531 -0.703125 -1.125 C -0.671875 -1.707031 -0.554688 -2.054688 -0.359375 -2.171875 C -0.160156 -2.296875 0.0703125 -2.359375 0.34375 -2.359375 C 0.625 -2.359375 0.804688 -2.359375 0.890625 -2.359375 C 2.066406 -2.359375 2.929688 -2.660156 3.484375 -3.265625 C 4.035156 -3.878906 4.476562 -4.570312 4.8125 -5.34375 C 5.144531 -6.113281 5.367188 -6.632812 5.484375 -6.90625 L 15.828125 -31.359375 C 16.054688 -31.941406 16.171875 -32.410156 16.171875 -32.765625 C 16.171875 -33.472656 15.894531 -33.984375 15.34375 -34.296875 C 14.800781 -34.617188 14.035156 -34.878906 13.046875 -35.078125 C 12.378906 -35.191406 11.96875 -35.304688 11.8125 -35.421875 C 11.65625 -35.546875 11.578125 -35.882812 11.578125 -36.4375 C 11.578125 -36.90625 11.703125 -37.21875 11.953125 -37.375 C 12.210938 -37.53125 12.617188 -37.609375 13.171875 -37.609375 C 15.140625 -37.609375 16.703125 -37.460938 17.859375 -37.171875 C 19.023438 -36.878906 20.039062 -36.285156 20.90625 -35.390625 C 21.769531 -34.503906 22.578125 -33.160156 23.328125 -31.359375 L 33.25 -6.90625 C 33.832031 -5.414062 34.398438 -4.296875 34.953125 -3.546875 C 35.503906 -2.796875 36.332031 -2.398438 37.4375 -2.359375 L 37.796875 -2.359375 C 38.179688 -2.359375 38.453125 -2.289062 38.609375 -2.15625 C 38.773438 -2.019531 38.875 -1.675781 38.90625 -1.125 C 38.90625 -0.769531 38.816406 -0.460938 38.640625 -0.203125 C 38.460938 0.046875 38.195312 0.171875 37.84375 0.171875 C 35.320312 0.0546875 33.160156 0 31.359375 0 C 28.992188 0 26.550781 0.0546875 24.03125 0.171875 C 23.675781 0.171875 23.410156 0.046875 23.234375 -0.203125 C 23.054688 -0.460938 22.96875 -0.769531 22.96875 -1.125 C 23.007812 -1.675781 23.109375 -2.019531 23.265625 -2.15625 C 23.421875 -2.289062 23.695312 -2.359375 24.09375 -2.359375 C 25.425781 -2.359375 26.367188 -2.484375 26.921875 -2.734375 C 27.472656 -2.992188 27.75 -3.460938 27.75 -4.140625 C 27.75 -4.648438 27.515625 -5.570312 27.046875 -6.90625 L 25.03125 -11.8125 L 10.453125 -11.8125 C 9.460938 -9.375 8.898438 -7.957031 8.765625 -7.5625 C 8.628906 -7.164062 8.5625 -6.945312 8.5625 -6.90625 C 8.09375 -5.414062 7.859375 -4.453125 7.859375 -4.015625 C 7.859375 -3.347656 8.148438 -2.90625 8.734375 -2.6875 C 9.328125 -2.46875 10.453125 -2.359375 12.109375 -2.359375 L 12.453125 -2.359375 C 12.847656 -2.359375 13.125 -2.289062 13.28125 -2.15625 C 13.4375 -2.019531 13.535156 -1.675781 13.578125 -1.125 C 13.578125 -0.769531 13.488281 -0.460938 13.3125 -0.203125 C 13.132812 0.046875 12.867188 0.171875 12.515625 0.171875 C 9.992188 0.0546875 7.847656 0 6.078125 0 C 4.816406 0 2.910156 0.0546875 0.359375 0.171875 Z M 11.578125 -14.34375 L 23.96875 -14.34375 L 18.015625 -29.53125 L 17.828125 -29.53125 Z M 11.578125 -14.34375 "/></g></g></g><g fill="#000000" fill-opacity="1"><g transform="translate(241.495938, 54.839408)"><g><path d="M 6.671875 -30.109375 C 6.003906 -31.804688 5.351562 -32.988281 4.71875 -33.65625 C 4.09375 -34.320312 3.171875 -34.773438 1.953125 -35.015625 C 1.796875 -35.054688 1.554688 -35.101562 1.234375 -35.15625 C 0.921875 -35.21875 0.710938 -35.335938 0.609375 -35.515625 C 0.515625 -35.691406 0.46875 -35.976562 0.46875 -36.375 C 0.46875 -36.84375 0.59375 -37.15625 0.84375 -37.3125 C 1.101562 -37.46875 1.507812 -37.546875 2.0625 -37.546875 C 5.019531 -37.546875 7.265625 -37.09375 8.796875 -36.1875 C 10.328125 -35.289062 11.546875 -33.679688 12.453125 -31.359375 L 19.1875 -9.75 L 19.421875 -9.75 L 26.625 -37.265625 L 29.703125 -37.265625 L 39.328125 -9.75 L 39.5 -9.75 L 46.171875 -32 C 46.328125 -32.59375 46.40625 -33.101562 46.40625 -33.53125 C 46.40625 -34.082031 46.207031 -34.445312 45.8125 -34.625 C 45.425781 -34.800781 44.679688 -34.890625 43.578125 -34.890625 L 43.21875 -34.890625 C 42.820312 -34.890625 42.546875 -34.957031 42.390625 -35.09375 C 42.234375 -35.238281 42.132812 -35.585938 42.09375 -36.140625 C 42.09375 -36.492188 42.179688 -36.796875 42.359375 -37.046875 C 42.535156 -37.304688 42.785156 -37.4375 43.109375 -37.4375 C 45.660156 -37.320312 47.804688 -37.265625 49.546875 -37.265625 C 50.285156 -37.265625 51.71875 -37.300781 53.84375 -37.375 L 55.09375 -37.4375 C 55.445312 -37.4375 55.710938 -37.304688 55.890625 -37.046875 C 56.066406 -36.796875 56.15625 -36.492188 56.15625 -36.140625 C 56.113281 -35.585938 56.015625 -35.238281 55.859375 -35.09375 C 55.703125 -34.957031 55.425781 -34.890625 55.03125 -34.890625 C 53.300781 -34.890625 51.953125 -34.601562 50.984375 -34.03125 C 50.023438 -33.46875 49.328125 -32.414062 48.890625 -30.875 L 39.203125 0.59375 L 36.4375 0.59375 L 26.859375 -27.578125 L 19.25 0.59375 L 16.46875 0.59375 Z M 6.671875 -30.109375 "/></g></g></g><g fill="#000000" fill-opacity="1"><g transform="translate(296.639691, 54.839408)"><g><path d="M 0.359375 0.171875 C 0.00390625 0.171875 -0.257812 0.046875 -0.4375 -0.203125 C -0.613281 -0.460938 -0.703125 -0.769531 -0.703125 -1.125 C -0.671875 -1.707031 -0.554688 -2.054688 -0.359375 -2.171875 C -0.160156 -2.296875 0.0703125 -2.359375 0.34375 -2.359375 C 0.625 -2.359375 0.804688 -2.359375 0.890625 -2.359375 C 2.066406 -2.359375 2.929688 -2.660156 3.484375 -3.265625 C 4.035156 -3.878906 4.476562 -4.570312 4.8125 -5.34375 C 5.144531 -6.113281 5.367188 -6.632812 5.484375 -6.90625 L 15.828125 -31.359375 C 16.054688 -31.941406 16.171875 -32.410156 16.171875 -32.765625 C 16.171875 -33.472656 15.894531 -33.984375 15.34375 -34.296875 C 14.800781 -34.617188 14.035156 -34.878906 13.046875 -35.078125 C 12.378906 -35.191406 11.96875 -35.304688 11.8125 -35.421875 C 11.65625 -35.546875 11.578125 -35.882812 11.578125 -36.4375 C 11.578125 -36.90625 11.703125 -37.21875 11.953125 -37.375 C 12.210938 -37.53125 12.617188 -37.609375 13.171875 -37.609375 C 15.140625 -37.609375 16.703125 -37.460938 17.859375 -37.171875 C 19.023438 -36.878906 20.039062 -36.285156 20.90625 -35.390625 C 21.769531 -34.503906 22.578125 -33.160156 23.328125 -31.359375 L 33.25 -6.90625 C 33.832031 -5.414062 34.398438 -4.296875 34.953125 -3.546875 C 35.503906 -2.796875 36.332031 -2.398438 37.4375 -2.359375 L 37.796875 -2.359375 C 38.179688 -2.359375 38.453125 -2.289062 38.609375 -2.15625 C 38.773438 -2.019531 38.875 -1.675781 38.90625 -1.125 C 38.90625 -0.769531 38.816406 -0.460938 38.640625 -0.203125 C 38.460938 0.046875 38.195312 0.171875 37.84375 0.171875 C 35.320312 0.0546875 33.160156 0 31.359375 0 C 28.992188 0 26.550781 0.0546875 24.03125 0.171875 C 23.675781 0.171875 23.410156 0.046875 23.234375 -0.203125 C 23.054688 -0.460938 22.96875 -0.769531 22.96875 -1.125 C 23.007812 -1.675781 23.109375 -2.019531 23.265625 -2.15625 C 23.421875 -2.289062 23.695312 -2.359375 24.09375 -2.359375 C 25.425781 -2.359375 26.367188 -2.484375 26.921875 -2.734375 C 27.472656 -2.992188 27.75 -3.460938 27.75 -4.140625 C 27.75 -4.648438 27.515625 -5.570312 27.046875 -6.90625 L 25.03125 -11.8125 L 10.453125 -11.8125 C 9.460938 -9.375 8.898438 -7.957031 8.765625 -7.5625 C 8.628906 -7.164062 8.5625 -6.945312 8.5625 -6.90625 C 8.09375 -5.414062 7.859375 -4.453125 7.859375 -4.015625 C 7.859375 -3.347656 8.148438 -2.90625 8.734375 -2.6875 C 9.328125 -2.46875 10.453125 -2.359375 12.109375 -2.359375 L 12.453125 -2.359375 C 12.847656 -2.359375 13.125 -2.289062 13.28125 -2.15625 C 13.4375 -2.019531 13.535156 -1.675781 13.578125 -1.125 C 13.578125 -0.769531 13.488281 -0.460938 13.3125 -0.203125 C 13.132812 0.046875 12.867188 0.171875 12.515625 0.171875 C 9.992188 0.0546875 7.847656 0 6.078125 0 C 4.816406 0 2.910156 0.0546875 0.359375 0.171875 Z M 11.578125 -14.34375 L 23.96875 -14.34375 L 18.015625 -29.53125 L 17.828125 -29.53125 Z M 11.578125 -14.34375 "/></g></g></g><g fill="#000000" fill-opacity="1"><g transform="translate(335.19307, 54.839408)"><g><path d="M 17.953125 0.59375 C 16.765625 -2.632812 14.890625 -7.769531 12.328125 -14.8125 C 9.773438 -21.863281 7.910156 -26.960938 6.734375 -30.109375 C 6.066406 -31.804688 5.414062 -32.988281 4.78125 -33.65625 C 4.15625 -34.320312 3.226562 -34.773438 2 -35.015625 C 1.84375 -35.054688 1.609375 -35.101562 1.296875 -35.15625 C 0.984375 -35.21875 0.773438 -35.335938 0.671875 -35.515625 C 0.578125 -35.691406 0.53125 -35.976562 0.53125 -36.375 C 0.53125 -36.84375 0.65625 -37.15625 0.90625 -37.3125 C 1.164062 -37.46875 1.570312 -37.546875 2.125 -37.546875 C 5.070312 -37.546875 7.3125 -37.09375 8.84375 -36.1875 C 10.382812 -35.289062 11.609375 -33.679688 12.515625 -31.359375 L 21.078125 -8.328125 L 21.25 -8.328125 L 29.40625 -32 C 29.644531 -32.664062 29.765625 -33.175781 29.765625 -33.53125 C 29.765625 -34.082031 29.535156 -34.445312 29.078125 -34.625 C 28.628906 -34.800781 27.875 -34.890625 26.8125 -34.890625 L 26.453125 -34.890625 C 26.054688 -34.890625 25.78125 -34.957031 25.625 -35.09375 C 25.46875 -35.238281 25.367188 -35.585938 25.328125 -36.140625 C 25.328125 -36.492188 25.414062 -36.796875 25.59375 -37.046875 C 25.769531 -37.304688 26.015625 -37.4375 26.328125 -37.4375 C 28.890625 -37.320312 31.035156 -37.265625 32.765625 -37.265625 C 33.515625 -37.265625 34.953125 -37.300781 37.078125 -37.375 L 38.328125 -37.4375 C 38.679688 -37.4375 38.945312 -37.304688 39.125 -37.046875 C 39.300781 -36.796875 39.390625 -36.492188 39.390625 -36.140625 C 39.347656 -35.585938 39.25 -35.238281 39.09375 -35.09375 C 38.9375 -34.957031 38.660156 -34.890625 38.265625 -34.890625 C 36.566406 -34.890625 35.273438 -34.613281 34.390625 -34.0625 C 33.503906 -33.519531 32.75 -32.457031 32.125 -30.875 C 30.9375 -27.65625 29.035156 -22.429688 26.421875 -15.203125 C 23.804688 -7.984375 21.90625 -2.71875 20.71875 0.59375 Z M 17.953125 0.59375 "/></g></g></g><g fill="#000000" fill-opacity="1"><g transform="translate(373.451236, 54.839408)"><g><path d="M 3.546875 0.171875 C 3.234375 0.171875 2.984375 0.046875 2.796875 -0.203125 C 2.617188 -0.460938 2.53125 -0.769531 2.53125 -1.125 C 2.570312 -1.707031 2.691406 -2.054688 2.890625 -2.171875 C 3.085938 -2.296875 3.460938 -2.359375 4.015625 -2.359375 C 5.160156 -2.359375 6.003906 -2.566406 6.546875 -2.984375 C 7.097656 -3.398438 7.441406 -3.910156 7.578125 -4.515625 C 7.722656 -5.128906 7.816406 -5.925781 7.859375 -6.90625 L 7.859375 -30.34375 C 7.816406 -31.332031 7.722656 -32.128906 7.578125 -32.734375 C 7.441406 -33.347656 7.097656 -33.859375 6.546875 -34.265625 C 6.003906 -34.679688 5.160156 -34.890625 4.015625 -34.890625 L 3.65625 -34.890625 C 3.269531 -34.890625 2.992188 -34.957031 2.828125 -35.09375 C 2.671875 -35.238281 2.570312 -35.585938 2.53125 -36.140625 C 2.53125 -36.492188 2.617188 -36.796875 2.796875 -37.046875 C 2.984375 -37.304688 3.234375 -37.4375 3.546875 -37.4375 C 6.140625 -37.320312 8.476562 -37.265625 10.5625 -37.265625 L 29.109375 -37.265625 C 30.128906 -37.265625 30.640625 -36.789062 30.640625 -35.84375 L 30.828125 -27.578125 C 30.828125 -27.222656 30.648438 -26.9375 30.296875 -26.71875 C 29.941406 -26.5 29.585938 -26.390625 29.234375 -26.390625 C 28.753906 -26.390625 28.335938 -26.476562 27.984375 -26.65625 C 27.628906 -26.832031 27.429688 -27.097656 27.390625 -27.453125 C 27.078125 -29.378906 26.734375 -30.84375 26.359375 -31.84375 C 25.984375 -32.851562 25.429688 -33.601562 24.703125 -34.09375 C 23.984375 -34.59375 22.953125 -34.859375 21.609375 -34.890625 L 13.703125 -34.890625 L 13.703125 -19.90625 L 24.390625 -19.90625 C 24.660156 -19.863281 24.875 -19.710938 25.03125 -19.453125 C 25.1875 -19.203125 25.265625 -18.898438 25.265625 -18.546875 C 25.265625 -18.222656 25.1875 -17.941406 25.03125 -17.703125 C 24.875 -17.472656 24.660156 -17.359375 24.390625 -17.359375 L 13.703125 -17.359375 L 13.703125 -6.203125 C 13.773438 -5.367188 13.867188 -4.707031 13.984375 -4.21875 C 14.109375 -3.726562 14.460938 -3.285156 15.046875 -2.890625 C 15.640625 -2.492188 16.566406 -2.316406 17.828125 -2.359375 L 23.265625 -2.359375 C 24.640625 -2.398438 25.679688 -2.625 26.390625 -3.03125 C 27.097656 -3.445312 27.660156 -4.085938 28.078125 -4.953125 C 28.492188 -5.828125 28.992188 -7.25 29.578125 -9.21875 C 29.859375 -9.925781 30.53125 -10.195312 31.59375 -10.03125 C 31.988281 -9.957031 32.332031 -9.800781 32.625 -9.5625 C 32.914062 -9.332031 33.039062 -9.039062 33 -8.6875 L 31.828125 -1.234375 C 31.710938 -0.722656 31.535156 -0.390625 31.296875 -0.234375 C 31.054688 -0.078125 30.660156 0 30.109375 0 L 10.625 0 C 8.5 0 6.140625 0.0546875 3.546875 0.171875 Z M 3.546875 0.171875 "/></g></g></g><g fill="#000000" fill-opacity="1"><g transform="translate(415.183673, 31.04661)"><g><path d="M 5.984375 0.09375 C 5.785156 0.09375 5.632812 0.0234375 5.53125 -0.109375 C 5.425781 -0.253906 5.375 -0.429688 5.375 -0.640625 C 5.40625 -0.972656 5.472656 -1.171875 5.578125 -1.234375 C 5.691406 -1.304688 5.90625 -1.34375 6.21875 -1.34375 C 6.863281 -1.34375 7.34375 -1.457031 7.65625 -1.6875 C 7.96875 -1.914062 8.160156 -2.203125 8.234375 -2.546875 C 8.316406 -2.898438 8.367188 -3.351562 8.390625 -3.90625 L 8.390625 -19.859375 L 6.078125 -19.859375 C 5.328125 -19.828125 4.742188 -19.660156 4.328125 -19.359375 C 3.910156 -19.066406 3.597656 -18.625 3.390625 -18.03125 C 3.179688 -17.4375 3 -16.59375 2.84375 -15.5 C 2.820312 -15.320312 2.6875 -15.175781 2.4375 -15.0625 C 2.195312 -14.957031 1.941406 -14.90625 1.671875 -14.90625 C 1.472656 -14.90625 1.289062 -14.96875 1.125 -15.09375 C 0.957031 -15.21875 0.875 -15.378906 0.875 -15.578125 L 0.96875 -20.28125 C 0.96875 -20.820312 1.269531 -21.09375 1.875 -21.09375 L 18.21875 -21.09375 C 18.789062 -21.09375 19.078125 -20.820312 19.078125 -20.28125 L 19.21875 -15.578125 C 19.21875 -15.378906 19.128906 -15.21875 18.953125 -15.09375 C 18.773438 -14.96875 18.582031 -14.90625 18.375 -14.90625 C 18.113281 -14.90625 17.863281 -14.957031 17.625 -15.0625 C 17.394531 -15.175781 17.269531 -15.320312 17.25 -15.5 C 17.070312 -16.613281 16.878906 -17.460938 16.671875 -18.046875 C 16.472656 -18.628906 16.160156 -19.066406 15.734375 -19.359375 C 15.316406 -19.660156 14.726562 -19.828125 13.96875 -19.859375 L 11.703125 -19.859375 L 11.703125 -3.90625 C 11.722656 -3.351562 11.769531 -2.898438 11.84375 -2.546875 C 11.925781 -2.203125 12.125 -1.914062 12.4375 -1.6875 C 12.75 -1.457031 13.226562 -1.34375 13.875 -1.34375 L 14.078125 -1.34375 C 14.273438 -1.34375 14.421875 -1.300781 14.515625 -1.21875 C 14.617188 -1.144531 14.679688 -0.953125 14.703125 -0.640625 C 14.703125 -0.429688 14.648438 -0.253906 14.546875 -0.109375 C 14.453125 0.0234375 14.304688 0.09375 14.109375 0.09375 C 12.679688 0.03125 11.363281 0 10.15625 0 C 8.820312 0 7.429688 0.03125 5.984375 0.09375 Z M 5.984375 0.09375 "/></g></g></g><g fill="#000000" fill-opacity="1"><g transform="translate(435.238643, 31.04661)"><g><path d="M 14.296875 0.171875 C 13.960938 0.171875 13.734375 0.0546875 13.609375 -0.171875 L 6.078125 -17.171875 L 5.984375 -17.171875 L 6.046875 -3.90625 C 6.066406 -3.3125 6.109375 -2.847656 6.171875 -2.515625 C 6.242188 -2.191406 6.429688 -1.914062 6.734375 -1.6875 C 7.035156 -1.457031 7.507812 -1.34375 8.15625 -1.34375 L 8.359375 -1.34375 C 8.578125 -1.34375 8.734375 -1.300781 8.828125 -1.21875 C 8.929688 -1.144531 9 -0.953125 9.03125 -0.640625 C 9.03125 -0.429688 8.976562 -0.253906 8.875 -0.109375 C 8.769531 0.0234375 8.617188 0.09375 8.421875 0.09375 L 7.59375 0.0625 C 6.5625 0.0195312 5.820312 0 5.375 0 C 4.625 0 3.523438 0.03125 2.078125 0.09375 C 1.867188 0.09375 1.710938 0.0234375 1.609375 -0.109375 C 1.515625 -0.253906 1.46875 -0.429688 1.46875 -0.640625 C 1.488281 -0.972656 1.554688 -1.171875 1.671875 -1.234375 C 1.785156 -1.304688 2 -1.34375 2.3125 -1.34375 C 2.957031 -1.34375 3.425781 -1.457031 3.71875 -1.6875 C 4.019531 -1.914062 4.203125 -2.191406 4.265625 -2.515625 C 4.335938 -2.847656 4.382812 -3.3125 4.40625 -3.90625 L 4.484375 -17.171875 C 4.484375 -17.867188 4.40625 -18.390625 4.25 -18.734375 C 4.09375 -19.078125 3.863281 -19.320312 3.5625 -19.46875 C 3.257812 -19.613281 2.816406 -19.742188 2.234375 -19.859375 C 2.148438 -19.878906 2.019531 -19.90625 1.84375 -19.9375 C 1.664062 -19.96875 1.546875 -20.03125 1.484375 -20.125 C 1.429688 -20.226562 1.40625 -20.394531 1.40625 -20.625 C 1.40625 -20.882812 1.476562 -21.0625 1.625 -21.15625 C 1.769531 -21.25 2 -21.296875 2.3125 -21.296875 C 3.625 -21.296875 4.703125 -21.207031 5.546875 -21.03125 C 6.390625 -20.863281 7.128906 -20.523438 7.765625 -20.015625 C 8.398438 -19.503906 8.929688 -18.75 9.359375 -17.75 L 15.109375 -4.84375 L 15.203125 -4.84375 L 21.796875 -21.09375 L 23.703125 -21.09375 C 24.921875 -21.09375 26.242188 -21.125 27.671875 -21.1875 C 27.867188 -21.1875 28.019531 -21.113281 28.125 -20.96875 C 28.226562 -20.820312 28.28125 -20.648438 28.28125 -20.453125 C 28.25 -20.117188 28.171875 -19.914062 28.046875 -19.84375 C 27.929688 -19.78125 27.726562 -19.75 27.4375 -19.75 C 26.789062 -19.75 26.3125 -19.628906 26 -19.390625 C 25.6875 -19.160156 25.488281 -18.875 25.40625 -18.53125 C 25.332031 -18.1875 25.285156 -17.734375 25.265625 -17.171875 L 25.265625 -3.90625 C 25.285156 -3.351562 25.332031 -2.898438 25.40625 -2.546875 C 25.488281 -2.203125 25.6875 -1.914062 26 -1.6875 C 26.3125 -1.457031 26.789062 -1.34375 27.4375 -1.34375 L 27.640625 -1.34375 C 27.835938 -1.34375 27.984375 -1.300781 28.078125 -1.21875 C 28.179688 -1.144531 28.25 -0.953125 28.28125 -0.640625 C 28.28125 -0.429688 28.226562 -0.253906 28.125 -0.109375 C 28.019531 0.0234375 27.867188 0.09375 27.671875 0.09375 C 26.242188 0.03125 24.90625 0 23.65625 0 C 22.363281 0 20.992188 0.03125 19.546875 0.09375 C 19.347656 0.09375 19.195312 0.0234375 19.09375 -0.109375 C 19 -0.253906 18.953125 -0.429688 18.953125 -0.640625 C 18.972656 -0.972656 19.035156 -1.171875 19.140625 -1.234375 C 19.253906 -1.304688 19.46875 -1.34375 19.78125 -1.34375 C 20.425781 -1.34375 20.90625 -1.457031 21.21875 -1.6875 C 21.53125 -1.914062 21.722656 -2.203125 21.796875 -2.546875 C 21.878906 -2.898438 21.929688 -3.351562 21.953125 -3.90625 L 21.953125 -17.171875 L 21.859375 -17.171875 L 14.96875 -0.171875 C 14.882812 0.0546875 14.660156 0.171875 14.296875 0.171875 Z M 14.296875 0.171875 "/></g></g></g></svg>